<svg width="80" height="80" viewBox="0 0 80 80" fill="none" xmlns="http://www.w3.org/2000/svg">
<g clip-path="url(#clip0_102_26)">
<path d="M40 80C50.6087 80 60.7828 75.7857 68.2843 68.2843C75.7857 60.7828 80 50.6087 80 40C80 29.3913 75.7857 19.2172 68.2843 11.7157C60.7828 4.21427 50.6087 0 40 0C29.3913 0 19.2172 4.21427 11.7157 11.7157C4.21427 19.2172 0 29.3913 0 40C0 50.6087 4.21427 60.7828 11.7157 68.2843C19.2172 75.7857 29.3913 80 40 80ZM28.75 36.25H51.25C53.3281 36.25 55 37.9219 55 40C55 42.0781 53.3281 43.75 51.25 43.75H28.75C26.6719 43.75 25 42.0781 25 40C25 37.9219 26.6719 36.25 28.75 36.25Z" fill="#D9D9D9"/>
</g>
<defs>
<clipPath id="clip0_102_26">
<rect width="80" height="80" fill="white"/>
</clipPath>
</defs>
</svg>
