<svg width="80" height="80" viewBox="0 0 80 80" fill="none" xmlns="http://www.w3.org/2000/svg">
<g clip-path="url(#clip0_102_28)">
<path d="M40 80C50.6087 80 60.7828 75.7857 68.2843 68.2843C75.7857 60.7828 80 50.6087 80 40C80 29.3913 75.7857 19.2172 68.2843 11.7157C60.7828 4.21427 50.6087 0 40 0C29.3913 0 19.2172 4.21427 11.7157 11.7157C4.21427 19.2172 0 29.3913 0 40C0 50.6087 4.21427 60.7828 11.7157 68.2843C19.2172 75.7857 29.3913 80 40 80ZM36.25 53.75V43.75H26.25C24.1719 43.75 22.5 42.0781 22.5 40C22.5 37.9219 24.1719 36.25 26.25 36.25H36.25V26.25C36.25 24.1719 37.9219 22.5 40 22.5C42.0781 22.5 43.75 24.1719 43.75 26.25V36.25H53.75C55.8281 36.25 57.5 37.9219 57.5 40C57.5 42.0781 55.8281 43.75 53.75 43.75H43.75V53.75C43.75 55.8281 42.0781 57.5 40 57.5C37.9219 57.5 36.25 55.8281 36.25 53.75Z" fill="#D9D9D9"/>
</g>
<defs>
<clipPath id="clip0_102_28">
<rect width="80" height="80" fill="white"/>
</clipPath>
</defs>
</svg>
