<svg width="322" height="322" viewBox="0 0 322 322" fill="none" xmlns="http://www.w3.org/2000/svg">
<path d="M311.601 55.6001C324.101 43.1001 324.101 22.8 311.601 10.3C299.101 -2.19995 278.801 -2.19995 266.301 10.3L161.001 115.7L55.6008 10.4C43.1008 -2.09995 22.8008 -2.09995 10.3008 10.4C-2.19922 22.9 -2.19922 43.2 10.3008 55.7L115.701 161L10.4008 266.4C-2.09922 278.9 -2.09922 299.2 10.4008 311.7C22.9008 324.2 43.2008 324.2 55.7008 311.7L161.001 206.3L266.401 311.6C278.901 324.1 299.201 324.1 311.701 311.6C324.201 299.1 324.201 278.8 311.701 266.3L206.301 161L311.601 55.6001Z" fill="white"/>
</svg>
