<svg width="80" height="80" viewBox="0 0 80 80" fill="none" xmlns="http://www.w3.org/2000/svg">
<path d="M77.4844 26.0312C77.9844 27.3906 77.5625 28.9062 76.4844 29.875L69.7188 36.0312C69.8907 37.3281 69.9844 38.6562 69.9844 40C69.9844 41.3438 69.8907 42.6719 69.7188 43.9688L76.4844 50.125C77.5625 51.0937 77.9844 52.6094 77.4844 53.9688C76.7969 55.8281 75.9688 57.6094 75.0157 59.3281L74.2813 60.5938C73.25 62.3125 72.0938 63.9375 70.8282 65.4688C69.9063 66.5938 68.375 66.9688 67 66.5312L58.2969 63.7656C56.2032 65.375 53.8907 66.7188 51.4219 67.7344L49.4688 76.6562C49.1563 78.0781 48.0625 79.2031 46.625 79.4375C44.4688 79.7969 42.25 79.9844 39.9844 79.9844C37.7188 79.9844 35.5 79.7969 33.3438 79.4375C31.9063 79.2031 30.8125 78.0781 30.5 76.6562L28.5469 67.7344C26.0782 66.7188 23.7657 65.375 21.6719 63.7656L12.9844 66.5469C11.6094 66.9844 10.0782 66.5938 9.15629 65.4844C7.89067 63.9531 6.73442 62.3281 5.70317 60.6094L4.96879 59.3438C4.01567 57.625 3.18754 55.8438 2.50004 53.9844C2.00004 52.625 2.42192 51.1094 3.50004 50.1406L10.2657 43.9844C10.0938 42.6719 10 41.3438 10 40C10 38.6562 10.0938 37.3281 10.2657 36.0312L3.50004 29.875C2.42192 28.9062 2.00004 27.3906 2.50004 26.0312C3.18754 24.1719 4.01567 22.3906 4.96879 20.6719L5.70317 19.4062C6.73442 17.6875 7.89067 16.0625 9.15629 14.5312C10.0782 13.4062 11.6094 13.0312 12.9844 13.4688L21.6875 16.2344C23.7813 14.625 26.0938 13.2812 28.5625 12.2656L30.5157 3.34375C30.8282 1.92187 31.9219 0.796875 33.3594 0.5625C35.5157 0.1875 37.7344 0 40 0C42.2657 0 44.4844 0.1875 46.6407 0.546875C48.0782 0.78125 49.1719 1.90625 49.4844 3.32812L51.4375 12.25C53.9063 13.2656 56.2188 14.6094 58.3125 16.2188L67.0157 13.4531C68.3907 13.0156 69.9219 13.4062 70.8438 14.5156C72.1094 16.0469 73.2657 17.6719 74.2969 19.3906L75.0313 20.6562C75.9844 22.375 76.8125 24.1562 77.5 26.0156L77.4844 26.0312ZM40 52.5C43.3152 52.5 46.4947 51.183 48.8389 48.8388C51.1831 46.4946 52.5 43.3152 52.5 40C52.5 36.6848 51.1831 33.5054 48.8389 31.1612C46.4947 28.817 43.3152 27.5 40 27.5C36.6848 27.5 33.5054 28.817 31.1612 31.1612C28.817 33.5054 27.5 36.6848 27.5 40C27.5 43.3152 28.817 46.4946 31.1612 48.8388C33.5054 51.183 36.6848 52.5 40 52.5Z" fill="#D9D9D9"/>
</svg>
