<svg width="80" height="92" viewBox="0 0 80 92" fill="none" xmlns="http://www.w3.org/2000/svg">
<path d="M11.4286 5.71429C5.125 5.71429 0 10.8393 0 17.1429V74.2857C0 80.5893 5.125 85.7143 11.4286 85.7143H68.5714C74.875 85.7143 80 80.5893 80 74.2857V30.9464C80 27.9107 78.8036 25 76.6607 22.8572L62.8571 9.05358C60.7143 6.91072 57.8036 5.71429 54.7679 5.71429H11.4286ZM11.4286 22.8572C11.4286 19.6964 13.9821 17.1429 17.1429 17.1429H51.4286C54.5893 17.1429 57.1429 19.6964 57.1429 22.8572V34.2857C57.1429 37.4464 54.5893 40 51.4286 40H17.1429C13.9821 40 11.4286 37.4464 11.4286 34.2857V22.8572ZM40 51.4286C43.031 51.4286 45.9379 52.6327 48.0812 54.7759C50.2245 56.9192 51.4286 59.8261 51.4286 62.8572C51.4286 65.8882 50.2245 68.7951 48.0812 70.9384C45.9379 73.0816 43.031 74.2857 40 74.2857C36.969 74.2857 34.0621 73.0816 31.9188 70.9384C29.7755 68.7951 28.5714 65.8882 28.5714 62.8572C28.5714 59.8261 29.7755 56.9192 31.9188 54.7759C34.0621 52.6327 36.969 51.4286 40 51.4286Z" fill="#D9D9D9"/>
</svg>
