<svg width="229" height="50" viewBox="0 0 229 50" fill="none" xmlns="http://www.w3.org/2000/svg">
<g clip-path="url(#clip0_105_58)">
<g clip-path="url(#clip1_105_58)">
<g clip-path="url(#clip2_105_58)">
<g clip-path="url(#clip3_105_58)">
<path d="M59.3419 9.08463C59.3419 7.82923 58.9088 6.81152 58.3745 6.81152C57.8403 6.81152 57.4072 7.82923 57.4072 9.08463V40.9153C57.4072 42.1707 57.8403 43.1884 58.3745 43.1884C58.9088 43.1884 59.3419 42.1707 59.3419 40.9153V9.08463Z" fill="white"/>
<g clip-path="url(#clip4_105_58)">
<g clip-path="url(#clip5_105_58)">
<g clip-path="url(#clip6_105_58)">
<g clip-path="url(#clip7_105_58)">
<path d="M88.6499 8.82699V28.0482H84.8473V15.6407L78.1467 27.4233C77.9841 27.7248 77.754 27.953 77.4564 28.1077C77.1628 28.2624 76.8455 28.3398 76.5043 28.3398C76.175 28.3398 75.8675 28.2624 75.5819 28.1077C75.2963 27.953 75.0721 27.7248 74.9095 27.4233L68.1791 15.6407V28.0482H64.4062V8.82699C64.4062 8.3906 64.5332 8.00379 64.7871 7.66658C65.045 7.3254 65.3822 7.09728 65.7987 6.98223C66.0011 6.93463 66.2054 6.91677 66.4117 6.92868C66.614 6.94454 66.8084 6.98818 66.9949 7.05959C67.1853 7.13497 67.3579 7.23812 67.5126 7.36904C67.6673 7.49996 67.7982 7.65666 67.9053 7.83915L76.5043 22.7876L85.1092 7.83915C85.3313 7.4702 85.6388 7.20837 86.0316 7.05364C86.4243 6.89892 86.8329 6.87512 87.2574 6.98223C87.6661 7.09728 87.9993 7.3254 88.2572 7.66658C88.519 8.00379 88.6499 8.3906 88.6499 8.82699ZM109.514 17.545C109.514 18.0686 109.422 18.632 109.24 19.235C109.053 19.842 108.754 20.4033 108.341 20.9191C107.933 21.4388 107.395 21.8732 106.729 22.2223C106.066 22.5714 105.261 22.746 104.312 22.746H97.4988V19.1576H104.312C104.824 19.1576 105.221 19.0009 105.503 18.6875C105.784 18.3701 105.925 17.9794 105.925 17.5152C105.925 17.0193 105.768 16.6325 105.455 16.3548C105.138 16.0731 104.757 15.9323 104.312 15.9323H97.4988C96.987 15.9323 96.5903 16.089 96.3086 16.4024C96.027 16.7198 95.8861 17.1105 95.8861 17.5747V22.8471C95.8861 23.351 96.0428 23.7437 96.3562 24.0254C96.6736 24.3071 97.0644 24.4479 97.5286 24.4479H104.312V28.0482H97.4988C96.9751 28.0482 96.4118 27.9569 95.8088 27.7744C95.2018 27.588 94.6384 27.2884 94.1187 26.8759C93.603 26.4672 93.1706 25.9297 92.8215 25.2632C92.4723 24.6007 92.2978 23.7953 92.2978 22.8471V17.545C92.2978 17.0213 92.389 16.456 92.5715 15.849C92.758 15.246 93.0555 14.6846 93.4641 14.1649C93.8767 13.6491 94.4143 13.2167 95.0768 12.8676C95.7433 12.5185 96.5506 12.3439 97.4988 12.3439H104.312C104.836 12.3439 105.4 12.4352 106.003 12.6177C106.61 12.8041 107.173 13.1017 107.693 13.5103C108.208 13.9229 108.641 14.4604 108.99 15.123C109.339 15.7895 109.514 16.5968 109.514 17.545ZM126.337 12.3439V16.1227H119.737V28.0482H115.917V16.1227H111.007V12.3439H115.917V7.21432H119.737V12.3439H126.337ZM142.564 12.3439V16.1227H134.061C133.549 16.1227 133.162 16.2497 132.9 16.5036C132.638 16.7614 132.508 17.1383 132.508 17.6342V28.0482H128.729V17.6342C128.729 16.9836 128.812 16.4024 128.979 15.8906C129.141 15.3749 129.362 14.9206 129.639 14.5279C129.917 14.1351 130.234 13.8019 130.591 13.5281C130.948 13.2504 131.323 13.0243 131.716 12.8498C132.109 12.6752 132.506 12.5482 132.906 12.4689C133.311 12.3856 133.688 12.3439 134.037 12.3439H142.564ZM162.131 17.6342V22.746C162.131 23.3926 162.047 23.9758 161.881 24.4955C161.718 25.0152 161.502 25.4715 161.232 25.8642C160.958 26.253 160.643 26.5862 160.286 26.864C159.929 27.1417 159.554 27.3678 159.161 27.5423C158.769 27.7129 158.372 27.8399 157.971 27.9232C157.566 28.0065 157.186 28.0482 156.829 28.0482H150.015C149.491 28.0482 148.92 27.9569 148.301 27.7744C147.682 27.588 147.107 27.2845 146.575 26.864C146.048 26.4434 145.607 25.896 145.254 25.2215C144.901 24.5471 144.725 23.7219 144.725 22.746V17.6342C144.725 16.6622 144.901 15.841 145.254 15.1706C145.607 14.4961 146.048 13.9487 146.575 13.5281C147.107 13.1076 147.682 12.8041 148.301 12.6177C148.92 12.4352 149.491 12.3439 150.015 12.3439H156.829C157.797 12.3439 158.62 12.5185 159.298 12.8676C159.977 13.2167 160.524 13.6551 160.941 14.1827C161.357 14.7104 161.659 15.2836 161.845 15.9025C162.036 16.5214 162.131 17.0986 162.131 17.6342ZM158.352 22.746V17.658C158.352 17.1383 158.221 16.7515 157.959 16.4976C157.697 16.2477 157.32 16.1227 156.829 16.1227H150.045C149.541 16.1227 149.158 16.2497 148.896 16.5036C148.634 16.7614 148.503 17.1383 148.503 17.6342V22.746C148.503 23.2379 148.634 23.6148 148.896 23.8766C149.158 24.1385 149.541 24.2694 150.045 24.2694H156.829C157.34 24.2694 157.723 24.1385 157.977 23.8766C158.227 23.6148 158.352 23.2379 158.352 22.746ZM182.744 19.3302V28.0482H178.966V19.3302C178.966 18.8383 178.882 18.3959 178.716 18.0032C178.545 17.6104 178.315 17.2732 178.025 16.9915C177.732 16.7099 177.391 16.4936 177.002 16.3429C176.609 16.1961 176.185 16.1227 175.728 16.1227H169.117V28.0482H165.338V14.2184C165.338 13.9566 165.388 13.7106 165.487 13.4805C165.582 13.2544 165.717 13.056 165.892 12.8855C166.066 12.7188 166.271 12.5859 166.505 12.4868C166.735 12.3915 166.981 12.3439 167.243 12.3439H175.758C176.23 12.3439 176.73 12.3975 177.258 12.5046C177.789 12.6117 178.313 12.7823 178.829 13.0164C179.348 13.2544 179.842 13.5559 180.311 13.9209C180.783 14.2819 181.199 14.7223 181.56 15.242C181.925 15.7617 182.213 16.3588 182.423 17.0332C182.637 17.7116 182.744 18.4773 182.744 19.3302ZM203.144 17.6342V22.746C203.144 23.3926 203.061 23.9758 202.894 24.4955C202.731 25.0152 202.513 25.4715 202.239 25.8642C201.97 26.253 201.656 26.5862 201.299 26.864C200.938 27.1417 200.561 27.3678 200.168 27.5423C199.776 27.7129 199.379 27.8399 198.978 27.9232C198.578 28.0065 198.197 28.0482 197.836 28.0482H191.022C190.502 28.0482 189.931 27.9569 189.308 27.7744C188.689 27.588 188.116 27.2845 187.588 26.864C187.061 26.4434 186.62 25.896 186.267 25.2215C185.914 24.5471 185.738 23.7219 185.738 22.746V17.6342C185.738 16.6622 185.914 15.841 186.267 15.1706C186.62 14.4961 187.061 13.9487 187.588 13.5281C188.116 13.1076 188.689 12.8041 189.308 12.6177C189.931 12.4352 190.502 12.3439 191.022 12.3439H197.836C198.808 12.3439 199.633 12.5185 200.311 12.8676C200.986 13.2167 201.531 13.6551 201.948 14.1827C202.364 14.7104 202.668 15.2836 202.858 15.9025C203.049 16.5214 203.144 17.0986 203.144 17.6342ZM199.365 22.746V17.658C199.365 17.1383 199.234 16.7515 198.972 16.4976C198.71 16.2477 198.332 16.1227 197.836 16.1227H191.052C190.548 16.1227 190.165 16.2497 189.903 16.5036C189.645 16.7614 189.516 17.1383 189.516 17.6342V22.746C189.516 23.2379 189.645 23.6148 189.903 23.8766C190.165 24.1385 190.548 24.2694 191.052 24.2694H197.836C198.351 24.2694 198.734 24.1385 198.984 23.8766C199.238 23.6148 199.365 23.2379 199.365 22.746ZM209.922 7.21432L216.289 14.6529L222.651 7.21432H227.81L218.842 17.658L227.751 28.0482H222.621L216.289 20.6691L209.981 28.0482H204.84L213.73 17.658L204.81 7.21432H209.922Z" fill="white"/>
</g>
</g>
<g clip-path="url(#clip8_105_58)">
<g clip-path="url(#clip9_105_58)">
<path d="M66.6491 40.7276H64.9164V37.6087L64.4062 36.6461L64.9164 36.184C64.8843 36.0749 64.8606 35.9286 64.8452 35.7451C64.8285 35.5628 64.8202 35.4139 64.8202 35.2984C64.8202 34.9326 64.9055 34.6118 65.0762 34.3358C65.2457 34.0599 65.4812 33.8429 65.7828 33.6851C66.0844 33.5285 66.4245 33.4502 66.8032 33.4502C66.9829 33.4502 67.1741 33.4579 67.3769 33.4733C67.5784 33.49 67.7529 33.5176 67.9005 33.5561L68.9305 34.1433L68.1893 35.4813L67.0823 34.8075C66.8641 34.8075 66.7037 34.8858 66.601 35.0424C66.4983 35.2002 66.447 35.3754 66.447 35.568C66.447 35.7091 66.4695 35.8343 66.5144 35.9434C66.5593 36.0525 66.6042 36.1327 66.6491 36.184H68.1893V37.3392H66.6491V39.1681L66.7454 40.1404L66.6491 40.7276ZM71.2119 34.6727L69.9894 35.9049L68.7669 34.6727L69.9894 33.4502L71.2119 34.6727ZM70.8558 40.7276H69.1231V37.5413L68.9209 36.7712L69.1134 36.184H70.8558V40.7276ZM73.6647 40.7276H71.932V37.8301L71.7395 36.7712L72.0379 36.184H73.4722V36.598L73.5607 36.6557C73.63 36.5915 73.7276 36.5158 73.8534 36.4285C73.9792 36.3425 74.1319 36.2642 74.3116 36.1937C74.49 36.1231 74.6915 36.0878 74.9161 36.0878C75.4937 36.0878 75.9268 36.2514 76.2156 36.5787C76.5044 36.906 76.6488 37.3648 76.6488 37.9552V39.1778L76.851 40.1404L76.6488 40.7276H74.9161V38.2055C74.9161 37.9617 74.8635 37.7736 74.7582 37.6414C74.653 37.5105 74.4881 37.4451 74.2634 37.4451L73.6647 37.628V40.7276ZM79.2671 40.8238C78.9655 40.8238 78.6754 40.7468 78.3969 40.5928C78.1171 40.4388 77.8874 40.1949 77.7077 39.8612C77.528 39.5275 77.4382 39.0911 77.4382 38.5521C77.4382 37.9552 77.5267 37.4771 77.7038 37.1178C77.8797 36.7584 78.1088 36.4966 78.3911 36.3323C78.6735 36.1693 78.9655 36.0878 79.2671 36.0878C79.7228 36.0878 80.0456 36.1263 80.2355 36.2033C80.4242 36.2803 80.5185 36.3188 80.5185 36.3188L80.4223 34.4994L80.5185 33.9219H82.2609V39.1874L82.4534 40.15L82.2609 40.7372H80.6148V40.2655L80.5185 40.2174C80.5185 40.2174 80.4704 40.2668 80.3741 40.3656C80.2779 40.4657 80.1367 40.5671 79.9506 40.6698C79.7645 40.7725 79.5367 40.8238 79.2671 40.8238ZM79.9891 39.4665L80.5185 39.3318V37.9264C80.5185 37.7788 80.4704 37.6613 80.3741 37.574C80.2779 37.4881 80.1495 37.4451 79.9891 37.4451C79.7516 37.4451 79.572 37.5233 79.45 37.6799C79.3281 37.8378 79.2671 38.0964 79.2671 38.4558C79.2671 38.8088 79.3377 39.0655 79.4789 39.2259C79.6201 39.3863 79.7901 39.4665 79.9891 39.4665ZM86.121 43.0667L84.7637 42.5854L85.1487 41.1511L86.4964 41.5362C86.7723 41.5362 86.9725 41.4643 87.097 41.3205C87.2228 41.1755 87.3178 40.9746 87.382 40.718H86.3905L85.3316 37.4258L85.1487 36.1744H86.9777L87.5071 39.351H87.6996L88.2291 36.1744H90.0581C90.0581 36.1744 90.0369 36.2752 89.9945 36.4767C89.9535 36.6795 89.8957 36.9477 89.8213 37.2814C89.7481 37.6151 89.6615 37.9822 89.5613 38.3826C89.4625 38.7844 89.3586 39.1887 89.2495 39.5955C89.1404 40.0037 89.0281 40.3778 88.9125 40.718C88.7393 41.2506 88.532 41.6902 88.2907 42.0367C88.0507 42.3833 87.7574 42.6419 87.4109 42.8126C87.0643 42.982 86.6343 43.0667 86.121 43.0667ZM92.6667 40.8238C91.8838 40.8238 91.2774 40.6377 90.8474 40.2655C90.4174 39.8933 90.2024 39.2901 90.2024 38.4558C90.2024 37.6151 90.4174 37.01 90.8474 36.6403C91.2774 36.2719 91.8838 36.0878 92.6667 36.0878C93.4689 36.0878 94.0767 36.2719 94.4899 36.6403C94.9045 37.01 95.1118 37.6151 95.1118 38.4558C95.1118 39.2901 94.9045 39.8933 94.4899 40.2655C94.0767 40.6377 93.4689 40.8238 92.6667 40.8238ZM92.6667 39.5724C92.9299 39.5724 93.1128 39.4742 93.2154 39.2779C93.3181 39.0828 93.3695 38.8088 93.3695 38.4558C93.3695 38.0964 93.3181 37.8205 93.2154 37.628C93.1128 37.4354 92.9299 37.3392 92.6667 37.3392C92.3972 37.3392 92.2092 37.4354 92.1027 37.628C91.9974 37.8205 91.9448 38.0964 91.9448 38.4558C91.9448 38.8088 91.9974 39.0828 92.1027 39.2779C92.2092 39.4742 92.3972 39.5724 92.6667 39.5724ZM97.1795 40.8238C96.7944 40.8238 96.498 40.75 96.29 40.6024C96.0808 40.4548 95.9364 40.2411 95.8569 39.9613C95.776 39.6828 95.7356 39.3478 95.7356 38.9564V36.1744H97.4683V38.7061C97.4683 38.9435 97.5151 39.1296 97.6088 39.2644C97.7012 39.3992 97.8405 39.4665 98.0266 39.4665C98.1999 39.4665 98.359 39.3927 98.5041 39.2451C98.6478 39.0975 98.7197 38.8826 98.7197 38.6002V36.1744H100.452V39.1778L100.655 40.1404L100.452 40.7276H98.8256V40.2559L98.7293 40.2078C98.6459 40.2912 98.5259 40.381 98.3693 40.4773C98.2114 40.5736 98.0317 40.6551 97.8302 40.7218C97.6274 40.7898 97.4105 40.8238 97.1795 40.8238ZM103.302 40.7276H101.588V37.7146L101.386 36.752L101.588 36.1744H102.897L103.09 36.3958C103.09 36.3958 103.135 36.3682 103.225 36.313C103.315 36.2591 103.442 36.2065 103.606 36.1551C103.769 36.1038 103.96 36.0781 104.178 36.0781C104.306 36.0781 104.434 36.0878 104.563 36.107C104.691 36.1263 104.791 36.1519 104.861 36.184L105.487 36.7135L104.861 37.9456L103.591 37.4162L103.302 37.5124V40.7276ZM111.426 40.7276H109.405L108.086 37.4354L107.893 36.184H109.722L110.348 39.1874H110.541L111.272 36.184H113.188L113.91 39.1874H114.102L114.738 36.184H116.557L116.364 37.4354L115.036 40.7276H113.015L112.321 37.628H112.129L111.426 40.7276ZM118.48 40.8238C118.204 40.8238 117.95 40.7834 117.716 40.7025C117.481 40.623 117.293 40.4837 117.152 40.2848C117.011 40.0858 116.94 39.8099 116.94 39.4569C116.94 39.1361 117.02 38.8697 117.181 38.658C117.341 38.4462 117.559 38.2889 117.835 38.1863C118.111 38.0836 118.423 38.0322 118.769 38.0322C119.103 38.0322 119.353 38.0688 119.52 38.142C119.687 38.2164 119.831 38.2922 119.953 38.3692L120.02 38.3114C120.02 38.1189 120.004 37.9584 119.972 37.8301C119.94 37.7018 119.866 37.6042 119.751 37.5375C119.635 37.4694 119.456 37.4354 119.212 37.4354C118.974 37.4354 118.723 37.456 118.457 37.497C118.19 37.5394 117.946 37.5907 117.726 37.6511C117.504 37.7127 117.338 37.7723 117.229 37.8301V36.3862C117.428 36.3156 117.712 36.2495 118.082 36.1879C118.45 36.1276 118.904 36.0974 119.443 36.0974C120.02 36.0974 120.478 36.1693 120.816 36.313C121.152 36.4581 121.394 36.6666 121.541 36.9387C121.689 37.2121 121.763 37.5381 121.763 37.9167V39.197L121.955 40.1693L121.763 40.7372H120.117V40.2655L120.02 40.2174C119.969 40.2687 119.879 40.3425 119.751 40.4388C119.623 40.5351 119.453 40.623 119.241 40.7025C119.029 40.7834 118.775 40.8238 118.48 40.8238ZM119.298 39.5628C119.472 39.5628 119.621 39.5468 119.747 39.5147C119.872 39.4826 119.963 39.4537 120.02 39.428V39.2451C120.02 39.1617 119.961 39.0815 119.843 39.0045C119.724 38.9275 119.539 38.889 119.289 38.889C118.942 38.889 118.769 39.0109 118.769 39.2548C118.769 39.3575 118.808 39.4345 118.885 39.4858C118.962 39.5371 119.1 39.5628 119.298 39.5628ZM123.313 43.0667L121.955 42.5854L122.34 41.1511L123.688 41.5362C123.964 41.5362 124.165 41.4643 124.291 41.3205C124.415 41.1755 124.509 40.9746 124.574 40.718H123.582L122.523 37.4258L122.34 36.1744H124.169L124.699 39.351H124.891L125.421 36.1744H127.25C127.25 36.1744 127.229 36.2752 127.188 36.4767C127.146 36.6795 127.087 36.9477 127.013 37.2814C126.94 37.6151 126.854 37.9822 126.755 38.3826C126.655 38.7844 126.55 39.1887 126.441 39.5955C126.332 40.0037 126.22 40.3778 126.104 40.718C125.931 41.2506 125.724 41.6902 125.484 42.0367C125.243 42.3833 124.949 42.6419 124.603 42.8126C124.256 42.982 123.826 43.0667 123.313 43.0667ZM132.323 34.6727L131.1 35.9049L129.876 34.6727L131.1 33.4502L132.323 34.6727ZM131.967 40.7276H130.234V37.5413L130.032 36.7712L130.224 36.184H131.967V40.7276ZM134.775 40.7276H133.043V37.8301L132.85 36.7712L133.149 36.184H134.583V36.598L134.67 36.6557C134.74 36.5915 134.838 36.5158 134.964 36.4285C135.089 36.3425 135.241 36.2642 135.42 36.1937C135.6 36.1231 135.802 36.0878 136.027 36.0878C136.604 36.0878 137.038 36.2514 137.326 36.5787C137.615 36.906 137.76 37.3648 137.76 37.9552V39.1778L137.962 40.1404L137.76 40.7276H136.027V38.2055C136.027 37.9617 135.974 37.7736 135.869 37.6414C135.762 37.5105 135.597 37.4451 135.372 37.4451L134.775 37.628V40.7276ZM144.199 40.8238C143.891 40.8238 143.646 40.7969 143.462 40.743C143.28 40.6878 143.147 40.6326 143.064 40.5774C142.98 40.5235 142.938 40.4965 142.938 40.4965V40.7372H141.206V35.4621L141.004 34.4994L141.206 33.9219H142.938V35.4717L142.842 36.5594L142.938 36.6076C143.067 36.4856 143.225 36.3682 143.414 36.2553C143.604 36.1436 143.866 36.0878 144.199 36.0878C144.771 36.0878 145.218 36.2707 145.541 36.6365C145.866 37.0023 146.028 37.5798 146.028 38.3692C146.028 38.9596 145.946 39.4357 145.782 39.7977C145.619 40.1609 145.4 40.4227 145.124 40.5832C144.848 40.7436 144.54 40.8238 144.199 40.8238ZM143.381 39.5051C143.632 39.5051 143.83 39.4165 143.978 39.2394C144.126 39.0635 144.199 38.7991 144.199 38.4462C144.199 38.0996 144.138 37.8474 144.017 37.6896C143.895 37.533 143.715 37.4547 143.478 37.4547L142.938 37.6568V39.3799C142.938 39.3799 142.972 39.4004 143.039 39.4415C143.107 39.4839 143.221 39.5051 143.381 39.5051ZM148.579 43.0667H146.847V37.8205L146.654 36.7616L146.953 36.1744H148.387V36.5883L148.483 36.6365C148.483 36.6365 148.541 36.5883 148.656 36.4921C148.772 36.3958 148.93 36.3008 149.132 36.2071C149.335 36.1147 149.571 36.0685 149.84 36.0685C150.412 36.0685 150.859 36.2514 151.182 36.6172C151.507 36.983 151.669 37.5606 151.669 38.3499C151.669 38.9403 151.587 39.4165 151.423 39.7784C151.26 40.1417 151.04 40.4035 150.765 40.5639C150.489 40.7244 150.181 40.8046 149.84 40.8046C149.378 40.8046 149.052 40.7674 148.862 40.6929C148.674 40.6198 148.579 40.5832 148.579 40.5832V43.0667ZM149.022 39.4858C149.266 39.4858 149.463 39.3992 149.613 39.2259C149.765 39.0526 149.84 38.7895 149.84 38.4365C149.84 38.09 149.779 37.8365 149.658 37.6761C149.536 37.5156 149.356 37.4354 149.118 37.4354L148.579 37.6376V39.3607C148.579 39.3607 148.613 39.3812 148.679 39.4223C148.748 39.4646 148.862 39.4858 149.022 39.4858ZM152.486 37.8301L152.293 36.7712L152.592 36.184H154.026V36.598L154.112 36.6557C154.183 36.5915 154.281 36.5158 154.407 36.4285C154.532 36.3425 154.684 36.2642 154.863 36.1937C155.043 36.1231 155.245 36.0878 155.47 36.0878C156.137 36.0878 156.615 36.3092 156.904 36.752C157.02 36.5915 157.195 36.4388 157.43 36.2938C157.663 36.15 157.989 36.0781 158.406 36.0781C158.983 36.0781 159.417 36.2418 159.705 36.5691C159.994 36.8964 160.138 37.3552 160.138 37.9456V39.1778L160.341 40.1404L160.138 40.7276H158.406V38.1959C158.406 37.952 158.353 37.7646 158.248 37.6337C158.141 37.5015 157.976 37.4354 157.751 37.4354C157.604 37.4354 157.475 37.49 157.366 37.5991C157.257 37.7082 157.202 37.8461 157.202 38.013V40.7276H155.47V38.2055C155.47 37.9617 155.417 37.7736 155.312 37.6414C155.205 37.5105 155.04 37.4451 154.815 37.4451L154.218 37.628V40.7276H152.486V37.8301Z" fill="#D9D9D9"/>
</g>
</g>
</g>
</g>
<mask id="path-4-inside-1_105_58" fill="white">
<path d="M27.7422 1.97022C26.8535 2.25342 25.9746 3.13233 25.75 3.97217C25.6523 4.35303 20.2812 31.687 20.2812 31.8237C20.2812 31.8726 20.0371 31.9116 19.7344 31.9116C19.0703 31.9116 18.8652 32.019 18.7285 32.4194C18.582 32.8784 15.7891 47.1948 15.7891 47.4878C15.7891 47.6245 15.877 47.8198 15.9844 47.9272C16.1797 48.1226 16.3066 48.1226 32 48.1226C47.6934 48.1226 47.8203 48.1226 48.0156 47.9272C48.123 47.8198 48.2109 47.6245 48.2109 47.4878C48.2109 47.1948 45.418 32.8784 45.2715 32.4194C45.1445 32.019 44.9297 31.9116 44.2754 31.9116H43.7383L43.4355 30.3198C43.2695 29.4507 42.8105 27.1069 42.4199 25.105L41.6973 21.4722L42.2246 20.8081C42.5176 20.4468 42.791 20.105 42.8398 20.0562C42.8887 20.0073 43.0449 20.0659 43.2109 20.1831C43.8359 20.6226 43.9531 20.5347 45.5645 18.4937C46.6973 17.0581 46.7852 16.7749 46.248 16.355L45.9453 16.1206L46.9316 14.8706C47.8301 13.7476 47.9277 13.5913 47.8984 13.2788C47.8789 13.0151 47.8008 12.8882 47.6152 12.7808C47.166 12.5269 46.9219 12.6929 45.9551 13.9136C45.457 14.5483 45.0176 15.105 44.9785 15.144C44.9395 15.1929 44.7441 15.1343 44.5293 15.0073C43.8555 14.6265 43.875 14.6167 41.9316 17.0972C41.5215 17.6245 41.1797 18.1421 41.1797 18.2397C41.1797 18.3472 41.3164 18.5815 41.4824 18.7769C41.7754 19.1089 41.7852 19.1284 41.6191 19.3726C41.5312 19.5093 41.4238 19.5874 41.375 19.5483C41.3359 19.4995 40.6328 16.0327 39.8125 11.8433C38.9922 7.65381 38.2695 4.06006 38.2012 3.85498C37.9082 2.98584 37.1172 2.23389 36.2188 1.97022C35.6035 1.78467 28.3379 1.78467 27.7422 1.97022ZM36.0625 3.38623C36.6582 3.65967 36.8633 4.021 37.1367 5.3003C37.2637 5.91553 37.3711 6.44287 37.3711 6.47217C37.3711 6.50147 34.959 6.521 32 6.521C29.0508 6.521 26.6289 6.50147 26.6289 6.47217C26.6289 6.44287 26.7363 5.91553 26.8633 5.3003C27.1367 4.021 27.3418 3.65967 27.9375 3.38623C28.3086 3.22022 28.6406 3.20069 32 3.20069C35.3594 3.20069 35.6914 3.22022 36.0625 3.38623ZM30.1445 9.25537V10.6226H29.7148C29.373 10.6226 29.2461 10.6714 29.1289 10.8374C28.7773 11.3355 29.041 11.8433 29.7051 11.9507L30.1445 12.0093V13.0249V14.0405H29.7832C29.3535 14.0405 28.9727 14.353 28.9727 14.6948C28.9727 15.0464 29.3828 15.4077 29.8027 15.4077H30.1445V16.4331V17.4585H29.8027C29.5586 17.4585 29.373 17.5366 29.2168 17.7026C28.7285 18.1812 29.0312 18.8257 29.7539 18.8257H30.1445V19.8999V20.9741H29.7539C29.0312 20.9741 28.7285 21.6187 29.2168 22.0972C29.373 22.2632 29.5586 22.3413 29.8027 22.3413H30.1445V23.3667V24.3921H29.8027C29.3926 24.3921 28.9727 24.7437 28.9727 25.0855C28.9727 25.4468 29.3438 25.7593 29.7734 25.7593H30.1445V28.8355V31.9116H25.8867H21.6289L21.6777 31.687C21.7559 31.394 26.3359 8.00537 26.3359 7.94678C26.3359 7.90772 27.1953 7.88819 28.2402 7.88819H30.1445V9.25537ZM32.4883 19.3823V30.8667L32.0879 31.394C31.8633 31.6772 31.6484 31.9116 31.5996 31.9116C31.5508 31.9116 31.5117 26.7358 31.5117 19.8999V7.88819H32H32.4883V19.3823ZM37.6641 7.94678C37.6641 7.97608 38.2402 10.9058 38.9336 14.4605C39.6367 18.0249 40.2031 20.9839 40.2031 21.0425C40.2031 21.1401 34.4219 28.5132 33.9922 28.9819C33.875 29.0991 33.8555 28.8745 33.8555 27.439V25.7593H34.2168C34.6465 25.7593 35.0273 25.4468 35.0273 25.105C35.0273 24.7534 34.6172 24.3921 34.1973 24.3921H33.8555V23.3667V22.3413H34.1973C34.4414 22.3413 34.627 22.2632 34.7832 22.0972C35.2715 21.6187 34.9688 20.9741 34.2461 20.9741H33.8555V19.8999V18.8257H34.2461C34.9688 18.8257 35.2715 18.1812 34.7832 17.7026C34.627 17.5366 34.4414 17.4585 34.1973 17.4585H33.8555V16.4331V15.4077H34.1973C34.6074 15.4077 35.0273 15.0562 35.0273 14.7144C35.0273 14.353 34.6562 14.0405 34.2266 14.0405H33.8555V13.0249V12.0093L34.2949 11.9507C34.959 11.8433 35.2227 11.3355 34.8711 10.8374C34.7539 10.6714 34.627 10.6226 34.2852 10.6226H33.8555V9.25537V7.88819H35.7598C36.8047 7.88819 37.6641 7.91748 37.6641 7.94678ZM44.5586 16.7358C44.7441 16.8823 44.8906 17.0288 44.8906 17.0679C44.8906 17.1069 44.5977 17.5073 44.2461 17.937L43.6113 18.7378L43.2305 18.4351L42.8496 18.1323L43.5039 17.3022C43.8652 16.853 44.168 16.4819 44.1875 16.4819C44.207 16.4819 44.373 16.5991 44.5586 16.7358ZM41.4727 27.4292C41.9609 29.8706 42.3516 31.8726 42.3516 31.8823C42.3516 31.9019 40.4375 31.9116 38.0938 31.9116H33.8359L33.875 31.5894C33.9043 31.355 34.7148 30.271 37.2246 27.1069C39.041 24.812 40.5547 22.9468 40.5742 22.9663C40.584 22.9858 40.9941 24.9976 41.4727 27.4292ZM44.7441 36.6675C45.1055 38.5425 45.7012 41.5601 46.0625 43.3862L46.707 46.7065L39.3535 46.7358C35.3105 46.7456 28.6895 46.7456 24.6465 46.7358L17.2832 46.7065L17.8887 43.6304C18.2207 41.9409 18.8164 38.9136 19.207 36.9116L19.9199 33.2788H32H44.0801L44.7441 36.6675Z"/>
</mask>
<path d="M27.7422 1.97022C26.8535 2.25342 25.9746 3.13233 25.75 3.97217C25.6523 4.35303 20.2812 31.687 20.2812 31.8237C20.2812 31.8726 20.0371 31.9116 19.7344 31.9116C19.0703 31.9116 18.8652 32.019 18.7285 32.4194C18.582 32.8784 15.7891 47.1948 15.7891 47.4878C15.7891 47.6245 15.877 47.8198 15.9844 47.9272C16.1797 48.1226 16.3066 48.1226 32 48.1226C47.6934 48.1226 47.8203 48.1226 48.0156 47.9272C48.123 47.8198 48.2109 47.6245 48.2109 47.4878C48.2109 47.1948 45.418 32.8784 45.2715 32.4194C45.1445 32.019 44.9297 31.9116 44.2754 31.9116H43.7383L43.4355 30.3198C43.2695 29.4507 42.8105 27.1069 42.4199 25.105L41.6973 21.4722L42.2246 20.8081C42.5176 20.4468 42.791 20.105 42.8398 20.0562C42.8887 20.0073 43.0449 20.0659 43.2109 20.1831C43.8359 20.6226 43.9531 20.5347 45.5645 18.4937C46.6973 17.0581 46.7852 16.7749 46.248 16.355L45.9453 16.1206L46.9316 14.8706C47.8301 13.7476 47.9277 13.5913 47.8984 13.2788C47.8789 13.0151 47.8008 12.8882 47.6152 12.7808C47.166 12.5269 46.9219 12.6929 45.9551 13.9136C45.457 14.5483 45.0176 15.105 44.9785 15.144C44.9395 15.1929 44.7441 15.1343 44.5293 15.0073C43.8555 14.6265 43.875 14.6167 41.9316 17.0972C41.5215 17.6245 41.1797 18.1421 41.1797 18.2397C41.1797 18.3472 41.3164 18.5815 41.4824 18.7769C41.7754 19.1089 41.7852 19.1284 41.6191 19.3726C41.5312 19.5093 41.4238 19.5874 41.375 19.5483C41.3359 19.4995 40.6328 16.0327 39.8125 11.8433C38.9922 7.65381 38.2695 4.06006 38.2012 3.85498C37.9082 2.98584 37.1172 2.23389 36.2188 1.97022C35.6035 1.78467 28.3379 1.78467 27.7422 1.97022ZM36.0625 3.38623C36.6582 3.65967 36.8633 4.021 37.1367 5.3003C37.2637 5.91553 37.3711 6.44287 37.3711 6.47217C37.3711 6.50147 34.959 6.521 32 6.521C29.0508 6.521 26.6289 6.50147 26.6289 6.47217C26.6289 6.44287 26.7363 5.91553 26.8633 5.3003C27.1367 4.021 27.3418 3.65967 27.9375 3.38623C28.3086 3.22022 28.6406 3.20069 32 3.20069C35.3594 3.20069 35.6914 3.22022 36.0625 3.38623ZM30.1445 9.25537V10.6226H29.7148C29.373 10.6226 29.2461 10.6714 29.1289 10.8374C28.7773 11.3355 29.041 11.8433 29.7051 11.9507L30.1445 12.0093V13.0249V14.0405H29.7832C29.3535 14.0405 28.9727 14.353 28.9727 14.6948C28.9727 15.0464 29.3828 15.4077 29.8027 15.4077H30.1445V16.4331V17.4585H29.8027C29.5586 17.4585 29.373 17.5366 29.2168 17.7026C28.7285 18.1812 29.0312 18.8257 29.7539 18.8257H30.1445V19.8999V20.9741H29.7539C29.0312 20.9741 28.7285 21.6187 29.2168 22.0972C29.373 22.2632 29.5586 22.3413 29.8027 22.3413H30.1445V23.3667V24.3921H29.8027C29.3926 24.3921 28.9727 24.7437 28.9727 25.0855C28.9727 25.4468 29.3438 25.7593 29.7734 25.7593H30.1445V28.8355V31.9116H25.8867H21.6289L21.6777 31.687C21.7559 31.394 26.3359 8.00537 26.3359 7.94678C26.3359 7.90772 27.1953 7.88819 28.2402 7.88819H30.1445V9.25537ZM32.4883 19.3823V30.8667L32.0879 31.394C31.8633 31.6772 31.6484 31.9116 31.5996 31.9116C31.5508 31.9116 31.5117 26.7358 31.5117 19.8999V7.88819H32H32.4883V19.3823ZM37.6641 7.94678C37.6641 7.97608 38.2402 10.9058 38.9336 14.4605C39.6367 18.0249 40.2031 20.9839 40.2031 21.0425C40.2031 21.1401 34.4219 28.5132 33.9922 28.9819C33.875 29.0991 33.8555 28.8745 33.8555 27.439V25.7593H34.2168C34.6465 25.7593 35.0273 25.4468 35.0273 25.105C35.0273 24.7534 34.6172 24.3921 34.1973 24.3921H33.8555V23.3667V22.3413H34.1973C34.4414 22.3413 34.627 22.2632 34.7832 22.0972C35.2715 21.6187 34.9688 20.9741 34.2461 20.9741H33.8555V19.8999V18.8257H34.2461C34.9688 18.8257 35.2715 18.1812 34.7832 17.7026C34.627 17.5366 34.4414 17.4585 34.1973 17.4585H33.8555V16.4331V15.4077H34.1973C34.6074 15.4077 35.0273 15.0562 35.0273 14.7144C35.0273 14.353 34.6562 14.0405 34.2266 14.0405H33.8555V13.0249V12.0093L34.2949 11.9507C34.959 11.8433 35.2227 11.3355 34.8711 10.8374C34.7539 10.6714 34.627 10.6226 34.2852 10.6226H33.8555V9.25537V7.88819H35.7598C36.8047 7.88819 37.6641 7.91748 37.6641 7.94678ZM44.5586 16.7358C44.7441 16.8823 44.8906 17.0288 44.8906 17.0679C44.8906 17.1069 44.5977 17.5073 44.2461 17.937L43.6113 18.7378L43.2305 18.4351L42.8496 18.1323L43.5039 17.3022C43.8652 16.853 44.168 16.4819 44.1875 16.4819C44.207 16.4819 44.373 16.5991 44.5586 16.7358ZM41.4727 27.4292C41.9609 29.8706 42.3516 31.8726 42.3516 31.8823C42.3516 31.9019 40.4375 31.9116 38.0938 31.9116H33.8359L33.875 31.5894C33.9043 31.355 34.7148 30.271 37.2246 27.1069C39.041 24.812 40.5547 22.9468 40.5742 22.9663C40.584 22.9858 40.9941 24.9976 41.4727 27.4292ZM44.7441 36.6675C45.1055 38.5425 45.7012 41.5601 46.0625 43.3862L46.707 46.7065L39.3535 46.7358C35.3105 46.7456 28.6895 46.7456 24.6465 46.7358L17.2832 46.7065L17.8887 43.6304C18.2207 41.9409 18.8164 38.9136 19.207 36.9116L19.9199 33.2788H32H44.0801L44.7441 36.6675Z" fill="#D9D9D9" stroke="white" stroke-width="8" mask="url(#path-4-inside-1_105_58)"/>
</g>
</g>
</g>
</g>
<defs>
<clipPath id="clip0_105_58">
<rect width="228.311" height="50" fill="white"/>
</clipPath>
<clipPath id="clip1_105_58">
<rect width="227.31" height="50.0228" fill="white" transform="translate(0.5 -0.0114746)"/>
</clipPath>
<clipPath id="clip2_105_58">
<rect width="227.31" height="50.0228" fill="white" transform="translate(0.5 -0.0114746)"/>
</clipPath>
<clipPath id="clip3_105_58">
<rect width="227.31" height="50.0228" fill="white" transform="translate(0.5 -0.0114746)"/>
</clipPath>
<clipPath id="clip4_105_58">
<rect width="163.404" height="36.1959" fill="white" transform="translate(64.4062 6.90186)"/>
</clipPath>
<clipPath id="clip5_105_58">
<rect width="163.404" height="36.1959" fill="white" transform="translate(64.4062 6.90186)"/>
</clipPath>
<clipPath id="clip6_105_58">
<rect width="163.404" height="21.4528" fill="white" transform="translate(64.4062 6.90186)"/>
</clipPath>
<clipPath id="clip7_105_58">
<rect width="163.404" height="21.4528" fill="white" transform="translate(64.4062 6.90186)"/>
</clipPath>
<clipPath id="clip8_105_58">
<rect width="95.9344" height="9.67869" fill="white" transform="translate(64.4062 33.4192)"/>
</clipPath>
<clipPath id="clip9_105_58">
<rect width="95.9344" height="9.67869" fill="white" transform="translate(64.4062 33.4192)"/>
</clipPath>
</defs>
</svg>
