<svg width="44" height="50" viewBox="0 0 44 50" fill="none" xmlns="http://www.w3.org/2000/svg">
<g clip-path="url(#clip0_105_94)">
<path d="M0 9.375C0 7.64648 1.39648 6.25 3.125 6.25H40.625C42.3535 6.25 43.75 7.64648 43.75 9.375C43.75 11.1035 42.3535 12.5 40.625 12.5H3.125C1.39648 12.5 0 11.1035 0 9.375ZM0 25C0 23.2715 1.39648 21.875 3.125 21.875H40.625C42.3535 21.875 43.75 23.2715 43.75 25C43.75 26.7285 42.3535 28.125 40.625 28.125H3.125C1.39648 28.125 0 26.7285 0 25ZM43.75 40.625C43.75 42.3535 42.3535 43.75 40.625 43.75H3.125C1.39648 43.75 0 42.3535 0 40.625C0 38.8965 1.39648 37.5 3.125 37.5H40.625C42.3535 37.5 43.75 38.8965 43.75 40.625Z" fill="#D9D9D9"/>
</g>
<defs>
<clipPath id="clip0_105_94">
<rect width="43.75" height="50" fill="white"/>
</clipPath>
</defs>
</svg>
