<svg width="326" height="464" viewBox="0 0 326 464" fill="none" xmlns="http://www.w3.org/2000/svg">
<path d="M120.422 1.70218C111.535 4.53421 102.746 13.3233 100.5 21.7217C99.5234 25.5303 45.8125 298.87 45.8125 300.237C45.8125 300.726 43.3711 301.116 40.3438 301.116C33.7031 301.116 31.6523 302.19 30.2852 306.194C28.8203 310.784 0.890625 453.948 0.890625 456.878C0.890625 458.245 1.76953 460.198 2.84375 461.272C4.79688 463.226 6.06641 463.226 163 463.226C319.934 463.226 321.203 463.226 323.156 461.272C324.23 460.198 325.109 458.245 325.109 456.878C325.109 453.948 297.18 310.784 295.715 306.194C294.445 302.19 292.297 301.116 285.754 301.116H280.383L277.355 285.198C275.695 276.507 271.105 253.069 267.199 233.05L259.973 196.722L265.246 190.081C268.176 186.468 270.91 183.05 271.398 182.562C271.887 182.073 273.449 182.659 275.109 183.831C281.359 188.226 282.531 187.347 298.645 166.937C309.973 152.581 310.852 149.749 305.48 145.55L302.453 143.206L312.316 130.706C321.301 119.476 322.277 117.913 321.984 114.788C321.789 112.151 321.008 110.882 319.152 109.808C314.66 107.269 312.219 108.929 302.551 121.136C297.57 127.483 293.176 133.05 292.785 133.44C292.395 133.929 290.441 133.343 288.293 132.073C281.555 128.265 281.75 128.167 262.316 152.972C258.215 158.245 254.797 163.421 254.797 164.397C254.797 165.472 256.164 167.815 257.824 169.769C260.754 173.089 260.852 173.284 259.191 175.726C258.312 177.093 257.238 177.874 256.75 177.483C256.359 176.995 249.328 142.327 241.125 100.433C232.922 58.5381 225.695 22.6006 225.012 20.5498C222.082 11.8584 214.172 4.3389 205.188 1.70218C199.035 -0.15329 126.379 -0.15329 120.422 1.70218ZM203.625 15.8623C209.582 18.5967 211.633 22.21 214.367 35.003C215.637 41.1553 216.711 46.4287 216.711 46.7217C216.711 47.0147 192.59 47.21 163 47.21C133.508 47.21 109.289 47.0147 109.289 46.7217C109.289 46.4287 110.363 41.1553 111.633 35.003C114.367 22.21 116.418 18.5967 122.375 15.8623C126.086 14.2022 129.406 14.0069 163 14.0069C196.594 14.0069 199.914 14.2022 203.625 15.8623ZM144.445 74.5537V88.2256H140.148C136.73 88.2256 135.461 88.7139 134.289 90.3741C130.773 95.3545 133.41 100.433 140.051 101.507L144.445 102.093V112.249V122.405H140.832C136.535 122.405 132.727 125.53 132.727 128.948C132.727 132.464 136.828 136.077 141.027 136.077H144.445V146.331V156.585H141.027C138.586 156.585 136.73 157.366 135.168 159.026C130.285 163.812 133.312 170.257 140.539 170.257H144.445V180.999V191.741H140.539C133.312 191.741 130.285 198.187 135.168 202.972C136.73 204.632 138.586 205.413 141.027 205.413H144.445V215.667V225.921H141.027C136.926 225.921 132.727 229.437 132.727 232.855C132.727 236.468 136.438 239.593 140.734 239.593H144.445V270.355V301.116H101.867H59.2891L59.7773 298.87C60.5586 295.94 106.359 62.0537 106.359 61.4678C106.359 61.0772 114.953 60.8819 125.402 60.8819H144.445V74.5537ZM167.883 175.823V290.667L163.879 295.94C161.633 298.772 159.484 301.116 158.996 301.116C158.508 301.116 158.117 249.358 158.117 180.999V60.8819H163H167.883V175.823ZM219.641 61.4678C219.641 61.7608 225.402 91.0576 232.336 126.605C239.367 162.249 245.031 191.839 245.031 192.425C245.031 193.401 187.219 267.132 182.922 271.819C181.75 272.991 181.555 270.745 181.555 256.39V239.593H185.168C189.465 239.593 193.273 236.468 193.273 233.05C193.273 229.534 189.172 225.921 184.973 225.921H181.555V215.667V205.413H184.973C187.414 205.413 189.27 204.632 190.832 202.972C195.715 198.187 192.688 191.741 185.461 191.741H181.555V180.999V170.257H185.461C192.688 170.257 195.715 163.812 190.832 159.026C189.27 157.366 187.414 156.585 184.973 156.585H181.555V146.331V136.077H184.973C189.074 136.077 193.273 132.562 193.273 129.144C193.273 125.53 189.562 122.405 185.266 122.405H181.555V112.249V102.093L185.949 101.507C192.59 100.433 195.227 95.3545 191.711 90.3741C190.539 88.7139 189.27 88.2256 185.852 88.2256H181.555V74.5537V60.8819H200.598C211.047 60.8819 219.641 61.1748 219.641 61.4678ZM288.586 149.358C290.441 150.823 291.906 152.288 291.906 152.679C291.906 153.069 288.977 157.073 285.461 161.37L279.113 169.378L275.305 166.351L271.496 163.323L278.039 155.022C281.652 150.53 284.68 146.819 284.875 146.819C285.07 146.819 286.73 147.991 288.586 149.358ZM257.727 256.292C262.609 280.706 266.516 300.726 266.516 300.823C266.516 301.019 247.375 301.116 223.938 301.116H181.359L181.75 297.894C182.043 295.55 190.148 284.71 215.246 253.069C233.41 230.12 248.547 211.468 248.742 211.663C248.84 211.858 252.941 231.976 257.727 256.292ZM290.441 348.675C294.055 367.425 300.012 397.601 303.625 415.862L310.07 449.065L236.535 449.358C196.105 449.456 129.895 449.456 89.4648 449.358L15.832 449.065L21.8867 418.304C25.207 401.409 31.1641 371.136 35.0703 351.116L42.1992 314.788H163H283.801L290.441 348.675Z" fill="#D9D9D9"/>
</svg>
