<svg width="500" height="500" viewBox="0 0 500 500" fill="none" xmlns="http://www.w3.org/2000/svg">
<path d="M207.422 19.7022C198.535 22.5342 189.746 31.3233 187.5 39.7217C186.523 43.5303 132.812 316.87 132.812 318.237C132.812 318.726 130.371 319.116 127.344 319.116C120.703 319.116 118.652 320.19 117.285 324.194C115.82 328.784 87.8906 471.948 87.8906 474.878C87.8906 476.245 88.7695 478.198 89.8438 479.272C91.7969 481.226 93.0664 481.226 250 481.226C406.934 481.226 408.203 481.226 410.156 479.272C411.23 478.198 412.109 476.245 412.109 474.878C412.109 471.948 384.18 328.784 382.715 324.194C381.445 320.19 379.297 319.116 372.754 319.116H367.383L364.355 303.198C362.695 294.507 358.105 271.069 354.199 251.05L346.973 214.722L352.246 208.081C355.176 204.468 357.91 201.05 358.398 200.562C358.887 200.073 360.449 200.659 362.109 201.831C368.359 206.226 369.531 205.347 385.645 184.937C396.973 170.581 397.852 167.749 392.48 163.55L389.453 161.206L399.316 148.706C408.301 137.476 409.277 135.913 408.984 132.788C408.789 130.151 408.008 128.882 406.152 127.808C401.66 125.269 399.219 126.929 389.551 139.136C384.57 145.483 380.176 151.05 379.785 151.44C379.395 151.929 377.441 151.343 375.293 150.073C368.555 146.265 368.75 146.167 349.316 170.972C345.215 176.245 341.797 181.421 341.797 182.397C341.797 183.472 343.164 185.815 344.824 187.769C347.754 191.089 347.852 191.284 346.191 193.726C345.312 195.093 344.238 195.874 343.75 195.483C343.359 194.995 336.328 160.327 328.125 118.433C319.922 76.5381 312.695 40.6006 312.012 38.5498C309.082 29.8584 301.172 22.3389 292.188 19.7022C286.035 17.8467 213.379 17.8467 207.422 19.7022ZM290.625 33.8623C296.582 36.5967 298.633 40.21 301.367 53.003C302.637 59.1553 303.711 64.4287 303.711 64.7217C303.711 65.0147 279.59 65.21 250 65.21C220.508 65.21 196.289 65.0147 196.289 64.7217C196.289 64.4287 197.363 59.1553 198.633 53.003C201.367 40.21 203.418 36.5967 209.375 33.8623C213.086 32.2022 216.406 32.0069 250 32.0069C283.594 32.0069 286.914 32.2022 290.625 33.8623ZM231.445 92.5537V106.226H227.148C223.73 106.226 222.461 106.714 221.289 108.374C217.773 113.355 220.41 118.433 227.051 119.507L231.445 120.093V130.249V140.405H227.832C223.535 140.405 219.727 143.53 219.727 146.948C219.727 150.464 223.828 154.077 228.027 154.077H231.445V164.331V174.585H228.027C225.586 174.585 223.73 175.366 222.168 177.026C217.285 181.812 220.312 188.257 227.539 188.257H231.445V198.999V209.741H227.539C220.312 209.741 217.285 216.187 222.168 220.972C223.73 222.632 225.586 223.413 228.027 223.413H231.445V233.667V243.921H228.027C223.926 243.921 219.727 247.437 219.727 250.855C219.727 254.468 223.438 257.593 227.734 257.593H231.445V288.355V319.116H188.867H146.289L146.777 316.87C147.559 313.94 193.359 80.0537 193.359 79.4678C193.359 79.0772 201.953 78.8819 212.402 78.8819H231.445V92.5537ZM254.883 193.823V308.667L250.879 313.94C248.633 316.772 246.484 319.116 245.996 319.116C245.508 319.116 245.117 267.358 245.117 198.999V78.8819H250H254.883V193.823ZM306.641 79.4678C306.641 79.7608 312.402 109.058 319.336 144.605C326.367 180.249 332.031 209.839 332.031 210.425C332.031 211.401 274.219 285.132 269.922 289.819C268.75 290.991 268.555 288.745 268.555 274.39V257.593H272.168C276.465 257.593 280.273 254.468 280.273 251.05C280.273 247.534 276.172 243.921 271.973 243.921H268.555V233.667V223.413H271.973C274.414 223.413 276.27 222.632 277.832 220.972C282.715 216.187 279.688 209.741 272.461 209.741H268.555V198.999V188.257H272.461C279.688 188.257 282.715 181.812 277.832 177.026C276.27 175.366 274.414 174.585 271.973 174.585H268.555V164.331V154.077H271.973C276.074 154.077 280.273 150.562 280.273 147.144C280.273 143.53 276.562 140.405 272.266 140.405H268.555V130.249V120.093L272.949 119.507C279.59 118.433 282.227 113.355 278.711 108.374C277.539 106.714 276.27 106.226 272.852 106.226H268.555V92.5537V78.8819H287.598C298.047 78.8819 306.641 79.1748 306.641 79.4678ZM375.586 167.358C377.441 168.823 378.906 170.288 378.906 170.679C378.906 171.069 375.977 175.073 372.461 179.37L366.113 187.378L362.305 184.351L358.496 181.323L365.039 173.022C368.652 168.53 371.68 164.819 371.875 164.819C372.07 164.819 373.73 165.991 375.586 167.358ZM344.727 274.292C349.609 298.706 353.516 318.726 353.516 318.823C353.516 319.019 334.375 319.116 310.938 319.116H268.359L268.75 315.894C269.043 313.55 277.148 302.71 302.246 271.069C320.41 248.12 335.547 229.468 335.742 229.663C335.84 229.858 339.941 249.976 344.727 274.292ZM377.441 366.675C381.055 385.425 387.012 415.601 390.625 433.862L397.07 467.065L323.535 467.358C283.105 467.456 216.895 467.456 176.465 467.358L102.832 467.065L108.887 436.304C112.207 419.409 118.164 389.136 122.07 369.116L129.199 332.788H250H370.801L377.441 366.675Z" fill="#D9D9D9"/>
<path d="M207.422 19.7022C198.535 22.5342 189.746 31.3233 187.5 39.7217C186.523 43.5303 132.812 316.87 132.812 318.237C132.812 318.726 130.371 319.116 127.344 319.116C120.703 319.116 118.652 320.19 117.285 324.194C115.82 328.784 87.8906 471.948 87.8906 474.878C87.8906 476.245 88.7695 478.198 89.8438 479.272C91.7969 481.226 93.0664 481.226 250 481.226C406.934 481.226 408.203 481.226 410.156 479.272C411.23 478.198 412.109 476.245 412.109 474.878C412.109 471.948 384.18 328.784 382.715 324.194C381.445 320.19 379.297 319.116 372.754 319.116H367.383L364.355 303.198C362.695 294.507 358.105 271.069 354.199 251.05L346.973 214.722L352.246 208.081C355.176 204.468 357.91 201.05 358.398 200.562C358.887 200.073 360.449 200.659 362.109 201.831C368.359 206.226 369.531 205.347 385.645 184.937C396.973 170.581 397.852 167.749 392.48 163.55L389.453 161.206L399.316 148.706C408.301 137.476 409.277 135.913 408.984 132.788C408.789 130.151 408.008 128.882 406.152 127.808C401.66 125.269 399.219 126.929 389.551 139.136C384.57 145.483 380.176 151.05 379.785 151.44C379.395 151.929 377.441 151.343 375.293 150.073C368.555 146.265 368.75 146.167 349.316 170.972C345.215 176.245 341.797 181.421 341.797 182.397C341.797 183.472 343.164 185.815 344.824 187.769C347.754 191.089 347.852 191.284 346.191 193.726C345.312 195.093 344.238 195.874 343.75 195.483C343.359 194.995 336.328 160.327 328.125 118.433C319.922 76.5381 312.695 40.6006 312.012 38.5498C309.082 29.8584 301.172 22.3389 292.188 19.7022C286.035 17.8467 213.379 17.8467 207.422 19.7022ZM290.625 33.8623C296.582 36.5967 298.633 40.21 301.367 53.003C302.637 59.1553 303.711 64.4287 303.711 64.7217C303.711 65.0147 279.59 65.21 250 65.21C220.508 65.21 196.289 65.0147 196.289 64.7217C196.289 64.4287 197.363 59.1553 198.633 53.003C201.367 40.21 203.418 36.5967 209.375 33.8623C213.086 32.2022 216.406 32.0069 250 32.0069C283.594 32.0069 286.914 32.2022 290.625 33.8623ZM231.445 92.5537V106.226H227.148C223.73 106.226 222.461 106.714 221.289 108.374C217.773 113.355 220.41 118.433 227.051 119.507L231.445 120.093V130.249V140.405H227.832C223.535 140.405 219.727 143.53 219.727 146.948C219.727 150.464 223.828 154.077 228.027 154.077H231.445V164.331V174.585H228.027C225.586 174.585 223.73 175.366 222.168 177.026C217.285 181.812 220.312 188.257 227.539 188.257H231.445V198.999V209.741H227.539C220.312 209.741 217.285 216.187 222.168 220.972C223.73 222.632 225.586 223.413 228.027 223.413H231.445V233.667V243.921H228.027C223.926 243.921 219.727 247.437 219.727 250.855C219.727 254.468 223.438 257.593 227.734 257.593H231.445V288.355V319.116H188.867H146.289L146.777 316.87C147.559 313.94 193.359 80.0537 193.359 79.4678C193.359 79.0772 201.953 78.8819 212.402 78.8819H231.445V92.5537ZM254.883 193.823V308.667L250.879 313.94C248.633 316.772 246.484 319.116 245.996 319.116C245.508 319.116 245.117 267.358 245.117 198.999V78.8819H250H254.883V193.823ZM306.641 79.4678C306.641 79.7608 312.402 109.058 319.336 144.605C326.367 180.249 332.031 209.839 332.031 210.425C332.031 211.401 274.219 285.132 269.922 289.819C268.75 290.991 268.555 288.745 268.555 274.39V257.593H272.168C276.465 257.593 280.273 254.468 280.273 251.05C280.273 247.534 276.172 243.921 271.973 243.921H268.555V233.667V223.413H271.973C274.414 223.413 276.27 222.632 277.832 220.972C282.715 216.187 279.688 209.741 272.461 209.741H268.555V198.999V188.257H272.461C279.688 188.257 282.715 181.812 277.832 177.026C276.27 175.366 274.414 174.585 271.973 174.585H268.555V164.331V154.077H271.973C276.074 154.077 280.273 150.562 280.273 147.144C280.273 143.53 276.562 140.405 272.266 140.405H268.555V130.249V120.093L272.949 119.507C279.59 118.433 282.227 113.355 278.711 108.374C277.539 106.714 276.27 106.226 272.852 106.226H268.555V92.5537V78.8819H287.598C298.047 78.8819 306.641 79.1748 306.641 79.4678ZM375.586 167.358C377.441 168.823 378.906 170.288 378.906 170.679C378.906 171.069 375.977 175.073 372.461 179.37L366.113 187.378L362.305 184.351L358.496 181.323L365.039 173.022C368.652 168.53 371.68 164.819 371.875 164.819C372.07 164.819 373.73 165.991 375.586 167.358ZM344.727 274.292C349.609 298.706 353.516 318.726 353.516 318.823C353.516 319.019 334.375 319.116 310.938 319.116H268.359L268.75 315.894C269.043 313.55 277.148 302.71 302.246 271.069C320.41 248.12 335.547 229.468 335.742 229.663C335.84 229.858 339.941 249.976 344.727 274.292ZM377.441 366.675C381.055 385.425 387.012 415.601 390.625 433.862L397.07 467.065L323.535 467.358C283.105 467.456 216.895 467.456 176.465 467.358L102.832 467.065L108.887 436.304C112.207 419.409 118.164 389.136 122.07 369.116L129.199 332.788H250H370.801L377.441 366.675Z" fill="#D9D9D9"/>
<path d="M231 372C226.583 372 223 375.583 223 380V428C223 432.417 226.583 436 231 436H236.333C240.75 436 244.333 432.417 244.333 428V380C244.333 375.583 240.75 372 236.333 372H231ZM263 372C258.583 372 255 375.583 255 380V428C255 432.417 258.583 436 263 436H268.333C272.75 436 276.333 432.417 276.333 428V380C276.333 375.583 272.75 372 268.333 372H263Z" fill="#D9D9D9"/>
</svg>
